<?xml version="1.0" encoding="utf-8"?>
<!-- Generator: Adobe Illustrator 26.5.0, SVG Export Plug-In . SVG Version: 6.00 Build 0)  -->
<svg version="1.1" id="Layer_1" xmlns="http://www.w3.org/2000/svg" xmlns:xlink="http://www.w3.org/1999/xlink" x="0px" y="0px"
	 viewBox="0 0 72 72" style="enable-background:new 0 0 72 72;" xml:space="preserve">
<style type="text/css">
	.st0{fill:#009457;}
	.st1{fill:#FFFFFF;}
</style>
<path class="st0" d="M59.77,0H12.23C5.48,0,0,5.48,0,12.23v47.54C0,66.52,5.48,72,12.23,72h47.54C66.52,72,72,66.52,72,59.77V12.23
	C72,5.48,66.52,0,59.77,0z"/>
<g>
	<path class="st1" d="M21.75,13.05h-8.04c-0.29,0-0.52,0.23-0.52,0.52v36.57c0,0.18,0.22,0.26,0.33,0.12l6.99-8.33
		c1.14-1.36,1.76-3.07,1.76-4.84l0-23.52C22.28,13.29,22.04,13.05,21.75,13.05z"/>
	<path class="st1" d="M58.76,13.4c0.12-0.13,0.03-0.35-0.15-0.35H47.06c-0.26,0-0.5,0.11-0.68,0.29L29.37,31.59
		c-0.55,0.59-0.85,1.36-0.85,2.16v3.37c0,1.77,0.62,3.48,1.76,4.84l13.98,16.67c0.18,0.21,0.44,0.33,0.71,0.33h10.99
		c0.17,0,0.27-0.2,0.16-0.34L37.67,36.62c-0.15-0.18-0.15-0.45,0.02-0.62L58.76,13.4z"/>
</g>
</svg>
