<?xml version="1.0" encoding="utf-8"?>
<!-- Generator: Adobe Illustrator 26.5.0, SVG Export Plug-In . SVG Version: 6.00 Build 0)  -->
<svg version="1.1" id="Layer_1" xmlns="http://www.w3.org/2000/svg" xmlns:xlink="http://www.w3.org/1999/xlink" x="0px" y="0px"
	 viewBox="0 0 32 32" style="enable-background:new 0 0 32 32;" xml:space="preserve">
<style type="text/css">
	.st0{fill:#009457;}
	.st1{fill:#FFFFFF;}
</style>
<g>
	<path class="st0" d="M26.56,0H5.44C2.43,0,0,2.43,0,5.44v21.13c0,3,2.43,5.44,5.44,5.44h21.13c3,0,5.44-2.43,5.44-5.44V5.44
		C32,2.43,29.57,0,26.56,0z"/>
	<g>
		<path class="st1" d="M9.67,5.8H6.09c-0.13,0-0.23,0.1-0.23,0.23v16.25c0,0.08,0.1,0.11,0.15,0.05l3.11-3.7
			c0.51-0.6,0.78-1.36,0.78-2.15l0-10.45C9.9,5.91,9.8,5.8,9.67,5.8z"/>
		<path class="st1" d="M26.11,5.95c0.05-0.06,0.01-0.15-0.07-0.15h-5.13c-0.11,0-0.22,0.05-0.3,0.13l-7.56,8.11
			c-0.24,0.26-0.38,0.6-0.38,0.96v1.5c0,0.79,0.28,1.55,0.78,2.15l6.22,7.41c0.08,0.09,0.19,0.15,0.32,0.15h4.89
			c0.08,0,0.12-0.09,0.07-0.15l-8.2-9.77c-0.07-0.08-0.06-0.2,0.01-0.28L26.11,5.95z"/>
	</g>
</g>
</svg>
