<?xml version="1.0" encoding="utf-8"?>
<!-- Generator: Adobe Illustrator 26.5.0, SVG Export Plug-In . SVG Version: 6.00 Build 0)  -->
<svg version="1.1" id="Layer_1" xmlns="http://www.w3.org/2000/svg" xmlns:xlink="http://www.w3.org/1999/xlink" x="0px" y="0px"
	 viewBox="0 0 90.31 90.31" style="enable-background:new 0 0 90.31 90.31;" xml:space="preserve">
<style type="text/css">
	.st0{fill:#009457;}
	.st1{fill:#FFFFFF;}
</style>
<path class="st0" d="M74.97,0H15.34C6.87,0,0,6.87,0,15.34v59.63c0,8.47,6.87,15.34,15.34,15.34h59.63
	c8.47,0,15.34-6.87,15.34-15.34V15.34C90.31,6.87,83.44,0,74.97,0z"/>
<g>
	<path class="st1" d="M27.28,16.37H17.2c-0.36,0-0.66,0.29-0.66,0.66V62.9c0,0.22,0.28,0.32,0.42,0.15l8.77-10.45
		c1.43-1.7,2.21-3.85,2.21-6.07l0-29.5C27.94,16.66,27.65,16.37,27.28,16.37z"/>
	<path class="st1" d="M73.7,16.8c0.15-0.16,0.04-0.43-0.19-0.43H59.02c-0.32,0-0.63,0.13-0.85,0.37L36.83,39.62
		c-0.68,0.73-1.07,1.7-1.07,2.71v4.22c0,2.22,0.78,4.37,2.21,6.07l17.54,20.9c0.22,0.26,0.55,0.41,0.89,0.41H70.2
		c0.22,0,0.34-0.26,0.2-0.42L47.25,45.93c-0.19-0.23-0.18-0.56,0.02-0.78L73.7,16.8z"/>
</g>
</svg>
